<svg xmlns="http://www.w3.org/2000/svg" xmlns:xlink="http://www.w3.org/1999/xlink" width="500" zoomAndPan="magnify" viewBox="0 0 375 374.999991" height="500" preserveAspectRatio="xMidYMid meet" version="1.0"><defs><clipPath id="64fc0ac8a4"><path d="M 68 41 L 287 41 L 287 95 L 68 95 Z M 68 41 " clip-rule="nonzero"/></clipPath><clipPath id="03c0888f32"><path d="M 187.5 -77.664062 L 452.664062 187.5 L 187.5 452.664062 L -77.664062 187.5 Z M 187.5 -77.664062 " clip-rule="nonzero"/></clipPath><clipPath id="e2a6255fb4"><path d="M 187.5 -77.664062 L 452.664062 187.5 L 187.5 452.664062 L -77.664062 187.5 Z M 187.5 -77.664062 " clip-rule="nonzero"/></clipPath><clipPath id="e9473c467d"><path d="M 88 280 L 307 280 L 307 334 L 88 334 Z M 88 280 " clip-rule="nonzero"/></clipPath><clipPath id="a166d7a845"><path d="M 187.5 -77.664062 L 452.664062 187.5 L 187.5 452.664062 L -77.664062 187.5 Z M 187.5 -77.664062 " clip-rule="nonzero"/></clipPath><clipPath id="c1f6344d4a"><path d="M 187.5 -77.664062 L 452.664062 187.5 L 187.5 452.664062 L -77.664062 187.5 Z M 187.5 -77.664062 " clip-rule="nonzero"/></clipPath><clipPath id="4d780b9b00"><path d="M 124 123 L 268 123 L 268 250 L 124 250 Z M 124 123 " clip-rule="nonzero"/></clipPath><clipPath id="15a7563c49"><path d="M 187.5 -77.664062 L 452.664062 187.5 L 187.5 452.664062 L -77.664062 187.5 Z M 187.5 -77.664062 " clip-rule="nonzero"/></clipPath><clipPath id="6452868563"><path d="M 187.5 -77.664062 L 452.664062 187.5 L 187.5 452.664062 L -77.664062 187.5 Z M 187.5 -77.664062 " clip-rule="nonzero"/></clipPath><clipPath id="93265d9acd"><path d="M 41 88 L 95 88 L 95 307 L 41 307 Z M 41 88 " clip-rule="nonzero"/></clipPath><clipPath id="ce0ffcaa79"><path d="M 187.5 -77.664062 L 452.664062 187.5 L 187.5 452.664062 L -77.664062 187.5 Z M 187.5 -77.664062 " clip-rule="nonzero"/></clipPath><clipPath id="09a4ffa9e2"><path d="M 187.5 -77.664062 L 452.664062 187.5 L 187.5 452.664062 L -77.664062 187.5 Z M 187.5 -77.664062 " clip-rule="nonzero"/></clipPath><clipPath id="669345cc50"><path d="M 280 68 L 334 68 L 334 287 L 280 287 Z M 280 68 " clip-rule="nonzero"/></clipPath><clipPath id="75effc07e4"><path d="M 187.5 -77.664062 L 452.664062 187.5 L 187.5 452.664062 L -77.664062 187.5 Z M 187.5 -77.664062 " clip-rule="nonzero"/></clipPath><clipPath id="119f6db9e2"><path d="M 187.5 -77.664062 L 452.664062 187.5 L 187.5 452.664062 L -77.664062 187.5 Z M 187.5 -77.664062 " clip-rule="nonzero"/></clipPath><clipPath id="5534684390"><path d="M 141 137 L 253 137 L 253 188 L 141 188 Z M 141 137 " clip-rule="nonzero"/></clipPath><clipPath id="3106333859"><path d="M 187.5 -77.664062 L 452.664062 187.5 L 187.5 452.664062 L -77.664062 187.5 Z M 187.5 -77.664062 " clip-rule="nonzero"/></clipPath><clipPath id="ebdeb687aa"><path d="M 187.5 -77.664062 L 452.664062 187.5 L 187.5 452.664062 L -77.664062 187.5 Z M 187.5 -77.664062 " clip-rule="nonzero"/></clipPath><clipPath id="763979f8ab"><path d="M 0.785156 0.785156 L 178.359375 0.785156 L 178.359375 178.359375 L 0.785156 178.359375 Z M 0.785156 0.785156 " clip-rule="nonzero"/></clipPath><clipPath id="bbea486dfa"><path d="M 60.890625 46.992188 L 100.351562 46.992188 L 100.351562 86.453125 L 60.890625 86.453125 Z M 60.890625 46.992188 " clip-rule="nonzero"/></clipPath><clipPath id="1a6bbd89d6"><path d="M 67.121094 53.222656 L 94.441406 53.222656 L 94.441406 80.542969 L 67.121094 80.542969 Z M 67.121094 53.222656 " clip-rule="nonzero"/></clipPath><clipPath id="0721c52a14"><path d="M 21.042969 40.273438 L 43.050781 40.273438 L 43.050781 62.28125 L 21.042969 62.28125 Z M 21.042969 40.273438 " clip-rule="nonzero"/></clipPath><clipPath id="6bc65bff15"><path d="M 24.492188 43.726562 L 39.671875 43.726562 L 39.671875 58.902344 L 24.492188 58.902344 Z M 24.492188 43.726562 " clip-rule="nonzero"/></clipPath><clipPath id="7cc6a78a66"><path d="M 94.441406 132.996094 L 125.554688 132.996094 L 125.554688 164.109375 L 94.441406 164.109375 Z M 94.441406 132.996094 " clip-rule="nonzero"/></clipPath><clipPath id="594eea6e98"><path d="M 99.308594 137.867188 L 120.558594 137.867188 L 120.558594 159.113281 L 99.308594 159.113281 Z M 99.308594 137.867188 " clip-rule="nonzero"/></clipPath><clipPath id="c34d0bdc8a"><path d="M 127.988281 35.316406 L 151.515625 35.316406 L 151.515625 58.84375 L 127.988281 58.84375 Z M 127.988281 35.316406 " clip-rule="nonzero"/></clipPath><clipPath id="b018f9c5a0"><path d="M 131.644531 38.972656 L 147.582031 38.972656 L 147.582031 54.910156 L 131.644531 54.910156 Z M 131.644531 38.972656 " clip-rule="nonzero"/></clipPath><clipPath id="185c660e2d"><rect x="0" width="179" y="0" height="179"/></clipPath></defs><rect x="-37.5" width="450" fill="#ffffff" y="-37.499999" height="449.999989" fill-opacity="1"/><rect x="-37.5" width="450" fill="#ffffff" y="-37.499999" height="449.999989" fill-opacity="1"/><g clip-path="url(#64fc0ac8a4)"><g clip-path="url(#03c0888f32)"><g clip-path="url(#e2a6255fb4)"><path fill="#000000" d="M 252.25 71.105469 C 247.53125 68.480469 242.644531 66.136719 237.597656 64.085938 C 221.644531 57.617188 204.792969 54.339844 187.507812 54.339844 C 170.222656 54.339844 153.367188 57.617188 137.410156 64.09375 C 135.4375 64.898438 133.488281 65.738281 131.574219 66.628906 L 68.558594 41.277344 L 121.632812 94.351562 C 160.941406 66.511719 214.070312 66.507812 253.382812 94.351562 L 286.859375 60.875 Z M 252.25 71.105469 " fill-opacity="1" fill-rule="nonzero"/></g></g></g><g clip-path="url(#e9473c467d)"><g clip-path="url(#a166d7a845)"><g clip-path="url(#c1f6344d4a)"><path fill="#000000" d="M 306.441406 333.667969 L 253.375 280.597656 C 214.066406 308.441406 160.941406 308.433594 121.625 280.597656 L 88.144531 314.078125 L 122.742188 303.847656 C 127.464844 306.46875 132.351562 308.816406 137.394531 310.863281 C 153.347656 317.332031 170.203125 320.609375 187.484375 320.609375 C 204.769531 320.609375 221.625 317.332031 237.574219 310.863281 C 239.554688 310.066406 241.496094 309.21875 243.425781 308.332031 Z M 306.441406 333.667969 " fill-opacity="1" fill-rule="nonzero"/></g></g></g><g clip-path="url(#4d780b9b00)"><g clip-path="url(#15a7563c49)"><g clip-path="url(#6452868563)"><path fill="#000000" d="M 124.796875 249.480469 L 169.453125 187.070312 L 124.277344 123.929688 L 267.152344 188.671875 Z M 158.402344 151.960938 L 183.515625 187.070312 L 157.878906 222.894531 L 238.734375 188.355469 Z M 158.402344 151.960938 " fill-opacity="1" fill-rule="nonzero"/></g></g></g><g clip-path="url(#93265d9acd)"><g clip-path="url(#ce0ffcaa79)"><g clip-path="url(#09a4ffa9e2)"><path fill="#000000" d="M 94.371094 121.597656 L 80.710938 107.9375 L 60.894531 88.117188 L 71.125 122.730469 C 68.503906 127.449219 66.15625 132.335938 64.109375 137.382812 C 57.636719 153.332031 54.363281 170.1875 54.363281 187.472656 C 54.363281 204.757812 57.636719 221.609375 64.109375 237.5625 C 64.914062 239.535156 65.753906 241.484375 66.640625 243.398438 L 41.296875 306.40625 L 80.707031 267 L 94.371094 253.332031 C 66.539062 214.03125 66.53125 160.90625 94.371094 121.597656 Z M 94.371094 121.597656 " fill-opacity="1" fill-rule="nonzero"/></g></g></g><g clip-path="url(#669345cc50)"><g clip-path="url(#75effc07e4)"><g clip-path="url(#119f6db9e2)"><path fill="#000000" d="M 314.105469 286.824219 L 303.875 252.230469 C 306.496094 247.507812 308.84375 242.621094 310.890625 237.574219 C 317.363281 221.625 320.636719 204.769531 320.644531 187.480469 C 320.644531 170.195312 317.367188 153.339844 310.898438 137.390625 C 310.101562 135.410156 309.253906 133.46875 308.367188 131.539062 L 333.695312 68.53125 L 280.621094 121.605469 C 308.460938 160.914062 308.457031 214.039062 280.621094 253.355469 L 314.097656 286.832031 Z M 314.105469 286.824219 " fill-opacity="1" fill-rule="nonzero"/></g></g></g><g clip-path="url(#5534684390)"><g clip-path="url(#3106333859)"><g clip-path="url(#ebdeb687aa)"><path fill="#000000" d="M 176.476562 187.070312 L 252.945312 187.070312 L 141.339844 137.953125 Z M 176.476562 187.070312 " fill-opacity="1" fill-rule="nonzero"/></g></g></g><g transform="matrix(1, 0, 0, 1, 98, 98)"><g clip-path="url(#185c660e2d)"><g clip-path="url(#763979f8ab)"><path fill="#000000" d="M 178.207031 89.496094 C 178.207031 90.945312 178.167969 92.398438 178.097656 93.847656 C 178.027344 95.296875 177.921875 96.746094 177.777344 98.191406 C 177.636719 99.636719 177.457031 101.074219 177.246094 102.511719 C 177.03125 103.949219 176.785156 105.378906 176.5 106.800781 C 176.21875 108.226562 175.898438 109.640625 175.546875 111.050781 C 175.195312 112.457031 174.808594 113.855469 174.386719 115.246094 C 173.964844 116.636719 173.507812 118.015625 173.019531 119.378906 C 172.53125 120.746094 172.007812 122.101562 171.453125 123.441406 C 170.898438 124.785156 170.308594 126.109375 169.6875 127.421875 C 169.066406 128.734375 168.414062 130.03125 167.730469 131.3125 C 167.046875 132.59375 166.332031 133.855469 165.585938 135.101562 C 164.839844 136.347656 164.0625 137.574219 163.253906 138.78125 C 162.449219 139.988281 161.613281 141.171875 160.746094 142.339844 C 159.882812 143.503906 158.988281 144.648438 158.070312 145.773438 C 157.148438 146.894531 156.199219 147.992188 155.226562 149.070312 C 154.25 150.144531 153.25 151.195312 152.222656 152.222656 C 151.195312 153.25 150.144531 154.25 149.070312 155.226562 C 147.992188 156.199219 146.894531 157.148438 145.773438 158.070312 C 144.648438 158.988281 143.503906 159.882812 142.339844 160.746094 C 141.171875 161.613281 139.988281 162.449219 138.78125 163.253906 C 137.574219 164.0625 136.347656 164.839844 135.101562 165.585938 C 133.855469 166.332031 132.59375 167.046875 131.3125 167.730469 C 130.03125 168.414062 128.734375 169.066406 127.421875 169.6875 C 126.109375 170.308594 124.785156 170.898438 123.441406 171.453125 C 122.101562 172.007812 120.746094 172.53125 119.378906 173.019531 C 118.015625 173.507812 116.636719 173.964844 115.246094 174.386719 C 113.855469 174.808594 112.457031 175.195312 111.050781 175.546875 C 109.640625 175.898438 108.226562 176.21875 106.800781 176.5 C 105.378906 176.785156 103.949219 177.03125 102.511719 177.246094 C 101.074219 177.457031 99.636719 177.636719 98.191406 177.777344 C 96.746094 177.921875 95.296875 178.027344 93.847656 178.097656 C 92.398438 178.167969 90.945312 178.207031 89.496094 178.207031 C 88.042969 178.207031 86.59375 178.167969 85.140625 178.097656 C 83.691406 178.027344 82.246094 177.921875 80.800781 177.777344 C 79.355469 177.636719 77.914062 177.457031 76.480469 177.246094 C 75.042969 177.03125 73.613281 176.785156 72.1875 176.5 C 70.765625 176.21875 69.347656 175.898438 67.941406 175.546875 C 66.53125 175.195312 65.132812 174.808594 63.742188 174.386719 C 62.355469 173.964844 60.976562 173.507812 59.609375 173.019531 C 58.242188 172.53125 56.890625 172.007812 55.546875 171.453125 C 54.207031 170.898438 52.878906 170.308594 51.566406 169.6875 C 50.253906 169.066406 48.957031 168.414062 47.675781 167.730469 C 46.398438 167.046875 45.132812 166.332031 43.890625 165.585938 C 42.644531 164.839844 41.417969 164.0625 40.210938 163.253906 C 39.003906 162.449219 37.816406 161.613281 36.652344 160.746094 C 35.484375 159.882812 34.339844 158.988281 33.21875 158.070312 C 32.097656 157.148438 30.996094 156.199219 29.921875 155.226562 C 28.84375 154.25 27.792969 153.25 26.769531 152.222656 C 25.742188 151.195312 24.742188 150.144531 23.765625 149.070312 C 22.789062 147.992188 21.84375 146.894531 20.921875 145.773438 C 20 144.648438 19.109375 143.503906 18.242188 142.339844 C 17.378906 141.171875 16.542969 139.988281 15.734375 138.78125 C 14.929688 137.574219 14.152344 136.347656 13.40625 135.101562 C 12.660156 133.855469 11.945312 132.59375 11.261719 131.3125 C 10.574219 130.03125 9.921875 128.734375 9.300781 127.421875 C 8.683594 126.109375 8.09375 124.785156 7.539062 123.441406 C 6.980469 122.101562 6.460938 120.746094 5.972656 119.378906 C 5.480469 118.015625 5.027344 116.636719 4.605469 115.246094 C 4.183594 113.855469 3.796875 112.457031 3.445312 111.050781 C 3.089844 109.640625 2.773438 108.226562 2.488281 106.800781 C 2.207031 105.378906 1.957031 103.949219 1.746094 102.511719 C 1.53125 101.074219 1.355469 99.636719 1.210938 98.191406 C 1.070312 96.746094 0.964844 95.296875 0.890625 93.847656 C 0.820312 92.398438 0.785156 90.945312 0.785156 89.496094 C 0.785156 88.042969 0.820312 86.59375 0.890625 85.140625 C 0.964844 83.691406 1.070312 82.246094 1.210938 80.800781 C 1.355469 79.355469 1.53125 77.914062 1.746094 76.480469 C 1.957031 75.042969 2.207031 73.613281 2.488281 72.1875 C 2.773438 70.765625 3.089844 69.347656 3.445312 67.941406 C 3.796875 66.53125 4.183594 65.132812 4.605469 63.742188 C 5.027344 62.355469 5.480469 60.976562 5.972656 59.609375 C 6.460938 58.242188 6.980469 56.890625 7.539062 55.546875 C 8.09375 54.207031 8.683594 52.878906 9.300781 51.566406 C 9.921875 50.253906 10.574219 48.957031 11.261719 47.675781 C 11.945312 46.398438 12.660156 45.132812 13.40625 43.890625 C 14.152344 42.644531 14.929688 41.417969 15.734375 40.210938 C 16.542969 39.003906 17.378906 37.816406 18.242188 36.652344 C 19.109375 35.484375 20 34.339844 20.921875 33.21875 C 21.84375 32.097656 22.789062 30.996094 23.765625 29.921875 C 24.742188 28.84375 25.742188 27.792969 26.769531 26.769531 C 27.792969 25.742188 28.84375 24.742188 29.921875 23.765625 C 30.996094 22.789062 32.097656 21.84375 33.21875 20.921875 C 34.339844 20 35.484375 19.109375 36.652344 18.242188 C 37.816406 17.378906 39.003906 16.542969 40.210938 15.734375 C 41.417969 14.929688 42.644531 14.152344 43.890625 13.40625 C 45.132812 12.660156 46.398438 11.945312 47.675781 11.261719 C 48.957031 10.574219 50.253906 9.921875 51.566406 9.300781 C 52.878906 8.683594 54.207031 8.09375 55.546875 7.539062 C 56.890625 6.980469 58.242188 6.460938 59.609375 5.972656 C 60.976562 5.480469 62.355469 5.027344 63.742188 4.605469 C 65.132812 4.183594 66.53125 3.796875 67.941406 3.445312 C 69.347656 3.089844 70.765625 2.773438 72.1875 2.488281 C 73.613281 2.207031 75.042969 1.957031 76.480469 1.746094 C 77.914062 1.53125 79.355469 1.355469 80.800781 1.210938 C 82.246094 1.070312 83.691406 0.964844 85.140625 0.890625 C 86.59375 0.820312 88.042969 0.785156 89.496094 0.785156 C 90.945312 0.785156 92.398438 0.820312 93.847656 0.890625 C 95.296875 0.964844 96.746094 1.070312 98.191406 1.210938 C 99.636719 1.355469 101.074219 1.53125 102.511719 1.746094 C 103.949219 1.957031 105.378906 2.207031 106.800781 2.488281 C 108.226562 2.773438 109.640625 3.089844 111.050781 3.445312 C 112.457031 3.796875 113.855469 4.183594 115.246094 4.605469 C 116.636719 5.027344 118.015625 5.480469 119.378906 5.972656 C 120.746094 6.460938 122.101562 6.980469 123.441406 7.539062 C 124.785156 8.09375 126.109375 8.683594 127.421875 9.300781 C 128.734375 9.921875 130.03125 10.574219 131.3125 11.261719 C 132.59375 11.945312 133.855469 12.660156 135.101562 13.40625 C 136.347656 14.152344 137.574219 14.929688 138.78125 15.734375 C 139.988281 16.542969 141.171875 17.378906 142.339844 18.242188 C 143.503906 19.109375 144.648438 20 145.773438 20.921875 C 146.894531 21.84375 147.992188 22.789062 149.070312 23.765625 C 150.144531 24.742188 151.195312 25.742188 152.222656 26.769531 C 153.25 27.792969 154.25 28.84375 155.226562 29.921875 C 156.199219 30.996094 157.148438 32.097656 158.070312 33.21875 C 158.988281 34.339844 159.882812 35.484375 160.746094 36.652344 C 161.613281 37.816406 162.449219 39.003906 163.253906 40.210938 C 164.0625 41.417969 164.839844 42.644531 165.585938 43.890625 C 166.332031 45.132812 167.046875 46.398438 167.730469 47.675781 C 168.414062 48.957031 169.066406 50.253906 169.6875 51.566406 C 170.308594 52.878906 170.898438 54.207031 171.453125 55.546875 C 172.007812 56.890625 172.53125 58.242188 173.019531 59.609375 C 173.507812 60.976562 173.964844 62.355469 174.386719 63.742188 C 174.808594 65.132812 175.195312 66.53125 175.546875 67.941406 C 175.898438 69.347656 176.21875 70.765625 176.5 72.1875 C 176.785156 73.613281 177.03125 75.042969 177.246094 76.480469 C 177.457031 77.914062 177.636719 79.355469 177.777344 80.800781 C 177.921875 82.246094 178.027344 83.691406 178.097656 85.140625 C 178.167969 86.59375 178.207031 88.042969 178.207031 89.496094 Z M 178.207031 89.496094 " fill-opacity="1" fill-rule="nonzero"/></g><g clip-path="url(#bbea486dfa)"><path fill="#ffffff" d="M 100.351562 66.722656 C 100.351562 67.371094 100.320312 68.015625 100.257812 68.65625 C 100.195312 69.300781 100.101562 69.9375 99.972656 70.574219 C 99.847656 71.207031 99.691406 71.832031 99.503906 72.449219 C 99.316406 73.070312 99.097656 73.675781 98.851562 74.273438 C 98.601562 74.871094 98.328125 75.453125 98.023438 76.023438 C 97.71875 76.59375 97.386719 77.148438 97.027344 77.683594 C 96.667969 78.222656 96.285156 78.742188 95.875 79.242188 C 95.464844 79.738281 95.03125 80.21875 94.574219 80.675781 C 94.117188 81.132812 93.636719 81.566406 93.140625 81.976562 C 92.640625 82.386719 92.121094 82.769531 91.582031 83.128906 C 91.046875 83.488281 90.492188 83.820312 89.921875 84.125 C 89.351562 84.429688 88.769531 84.703125 88.171875 84.953125 C 87.574219 85.199219 86.96875 85.417969 86.351562 85.605469 C 85.730469 85.792969 85.105469 85.949219 84.472656 86.074219 C 83.835938 86.199219 83.199219 86.296875 82.554688 86.359375 C 81.914062 86.421875 81.269531 86.453125 80.621094 86.453125 C 79.976562 86.453125 79.332031 86.421875 78.6875 86.359375 C 78.046875 86.296875 77.40625 86.199219 76.773438 86.074219 C 76.140625 85.949219 75.511719 85.792969 74.894531 85.605469 C 74.277344 85.417969 73.667969 85.199219 73.070312 84.953125 C 72.476562 84.703125 71.890625 84.429688 71.320312 84.125 C 70.75 83.820312 70.199219 83.488281 69.660156 83.128906 C 69.125 82.769531 68.605469 82.386719 68.105469 81.976562 C 67.605469 81.566406 67.128906 81.132812 66.671875 80.675781 C 66.214844 80.21875 65.78125 79.738281 65.371094 79.242188 C 64.960938 78.742188 64.574219 78.222656 64.21875 77.683594 C 63.859375 77.148438 63.527344 76.59375 63.222656 76.023438 C 62.917969 75.453125 62.640625 74.871094 62.394531 74.273438 C 62.144531 73.675781 61.929688 73.070312 61.742188 72.449219 C 61.554688 71.832031 61.398438 71.207031 61.269531 70.574219 C 61.144531 69.9375 61.050781 69.300781 60.988281 68.65625 C 60.921875 68.015625 60.890625 67.371094 60.890625 66.722656 C 60.890625 66.078125 60.921875 65.433594 60.988281 64.789062 C 61.050781 64.148438 61.144531 63.507812 61.269531 62.875 C 61.398438 62.242188 61.554688 61.613281 61.742188 60.996094 C 61.929688 60.378906 62.144531 59.769531 62.394531 59.171875 C 62.640625 58.574219 62.917969 57.992188 63.222656 57.421875 C 63.527344 56.851562 63.859375 56.300781 64.21875 55.761719 C 64.574219 55.222656 64.960938 54.707031 65.371094 54.207031 C 65.78125 53.707031 66.214844 53.230469 66.671875 52.773438 C 67.128906 52.316406 67.605469 51.882812 68.105469 51.472656 C 68.605469 51.0625 69.125 50.675781 69.660156 50.316406 C 70.199219 49.960938 70.75 49.628906 71.320312 49.324219 C 71.890625 49.019531 72.476562 48.742188 73.070312 48.496094 C 73.667969 48.246094 74.277344 48.03125 74.894531 47.84375 C 75.511719 47.65625 76.140625 47.5 76.773438 47.371094 C 77.40625 47.246094 78.046875 47.152344 78.6875 47.089844 C 79.332031 47.023438 79.976562 46.992188 80.621094 46.992188 C 81.269531 46.992188 81.914062 47.023438 82.554688 47.089844 C 83.199219 47.152344 83.835938 47.246094 84.472656 47.371094 C 85.105469 47.5 85.730469 47.65625 86.351562 47.84375 C 86.96875 48.03125 87.574219 48.246094 88.171875 48.496094 C 88.769531 48.742188 89.351562 49.019531 89.921875 49.324219 C 90.492188 49.628906 91.046875 49.960938 91.582031 50.316406 C 92.121094 50.675781 92.640625 51.0625 93.140625 51.472656 C 93.636719 51.882812 94.117188 52.316406 94.574219 52.773438 C 95.03125 53.230469 95.464844 53.707031 95.875 54.207031 C 96.285156 54.707031 96.667969 55.222656 97.027344 55.761719 C 97.386719 56.300781 97.71875 56.851562 98.023438 57.421875 C 98.328125 57.992188 98.601562 58.574219 98.851562 59.171875 C 99.097656 59.769531 99.316406 60.378906 99.503906 60.996094 C 99.691406 61.613281 99.847656 62.242188 99.972656 62.875 C 100.101562 63.507812 100.195312 64.148438 100.257812 64.789062 C 100.320312 65.433594 100.351562 66.078125 100.351562 66.722656 Z M 100.351562 66.722656 " fill-opacity="1" fill-rule="nonzero"/></g><g clip-path="url(#1a6bbd89d6)"><path fill="#000000" d="M 94.441406 66.882812 C 94.441406 67.777344 94.351562 68.667969 94.175781 69.546875 C 94.003906 70.425781 93.742188 71.28125 93.398438 72.109375 C 93.058594 72.9375 92.636719 73.726562 92.136719 74.46875 C 91.640625 75.214844 91.074219 75.90625 90.4375 76.539062 C 89.804688 77.175781 89.113281 77.742188 88.371094 78.238281 C 87.625 78.738281 86.835938 79.160156 86.007812 79.5 C 85.179688 79.84375 84.324219 80.105469 83.445312 80.277344 C 82.566406 80.453125 81.675781 80.542969 80.78125 80.542969 C 79.882812 80.542969 78.996094 80.453125 78.117188 80.277344 C 77.234375 80.105469 76.382812 79.84375 75.554688 79.5 C 74.722656 79.160156 73.9375 78.738281 73.191406 78.238281 C 72.445312 77.742188 71.757812 77.175781 71.121094 76.539062 C 70.488281 75.90625 69.921875 75.214844 69.421875 74.46875 C 68.925781 73.726562 68.503906 72.9375 68.160156 72.109375 C 67.816406 71.28125 67.558594 70.425781 67.382812 69.546875 C 67.207031 68.667969 67.121094 67.777344 67.121094 66.882812 C 67.121094 65.984375 67.207031 65.097656 67.382812 64.21875 C 67.558594 63.335938 67.816406 62.484375 68.160156 61.65625 C 68.503906 60.824219 68.925781 60.039062 69.421875 59.292969 C 69.921875 58.546875 70.488281 57.855469 71.121094 57.222656 C 71.757812 56.589844 72.445312 56.023438 73.191406 55.523438 C 73.9375 55.027344 74.722656 54.605469 75.554688 54.261719 C 76.382812 53.917969 77.234375 53.660156 78.117188 53.484375 C 78.996094 53.308594 79.882812 53.222656 80.78125 53.222656 C 81.675781 53.222656 82.566406 53.308594 83.445312 53.484375 C 84.324219 53.660156 85.179688 53.917969 86.007812 54.261719 C 86.835938 54.605469 87.625 55.027344 88.371094 55.523438 C 89.113281 56.023438 89.804688 56.589844 90.4375 57.222656 C 91.074219 57.855469 91.640625 58.546875 92.136719 59.292969 C 92.636719 60.039062 93.058594 60.824219 93.398438 61.65625 C 93.742188 62.484375 94.003906 63.335938 94.175781 64.21875 C 94.351562 65.097656 94.441406 65.984375 94.441406 66.882812 Z M 94.441406 66.882812 " fill-opacity="1" fill-rule="nonzero"/></g><g clip-path="url(#0721c52a14)"><path fill="#ffffff" d="M 43.050781 51.277344 C 43.050781 52 42.980469 52.714844 42.839844 53.425781 C 42.695312 54.132812 42.488281 54.820312 42.210938 55.488281 C 41.933594 56.15625 41.597656 56.789062 41.195312 57.390625 C 40.792969 57.992188 40.335938 58.546875 39.828125 59.058594 C 39.316406 59.570312 38.761719 60.027344 38.160156 60.425781 C 37.558594 60.828125 36.925781 61.167969 36.257812 61.445312 C 35.589844 61.71875 34.902344 61.929688 34.191406 62.070312 C 33.484375 62.210938 32.769531 62.28125 32.046875 62.28125 C 31.324219 62.28125 30.609375 62.210938 29.898438 62.070312 C 29.191406 61.929688 28.503906 61.71875 27.835938 61.445312 C 27.167969 61.167969 26.535156 60.828125 25.933594 60.425781 C 25.332031 60.027344 24.777344 59.570312 24.265625 59.058594 C 23.753906 58.546875 23.296875 57.992188 22.898438 57.390625 C 22.496094 56.789062 22.15625 56.15625 21.878906 55.488281 C 21.605469 54.820312 21.394531 54.132812 21.253906 53.425781 C 21.113281 52.714844 21.042969 52 21.042969 51.277344 C 21.042969 50.554688 21.113281 49.839844 21.253906 49.132812 C 21.394531 48.421875 21.605469 47.734375 21.878906 47.066406 C 22.15625 46.398438 22.496094 45.765625 22.898438 45.164062 C 23.296875 44.5625 23.753906 44.007812 24.265625 43.496094 C 24.777344 42.984375 25.332031 42.53125 25.933594 42.128906 C 26.535156 41.726562 27.167969 41.386719 27.835938 41.113281 C 28.503906 40.835938 29.191406 40.625 29.898438 40.484375 C 30.609375 40.34375 31.324219 40.273438 32.046875 40.273438 C 32.769531 40.273438 33.484375 40.34375 34.191406 40.484375 C 34.902344 40.625 35.589844 40.835938 36.257812 41.113281 C 36.925781 41.386719 37.558594 41.726562 38.160156 42.128906 C 38.761719 42.53125 39.316406 42.984375 39.828125 43.496094 C 40.335938 44.007812 40.792969 44.5625 41.195312 45.164062 C 41.597656 45.765625 41.933594 46.398438 42.210938 47.066406 C 42.488281 47.734375 42.695312 48.421875 42.839844 49.132812 C 42.980469 49.839844 43.050781 50.554688 43.050781 51.277344 Z M 43.050781 51.277344 " fill-opacity="1" fill-rule="nonzero"/></g><g clip-path="url(#6bc65bff15)"><path fill="#000000" d="M 39.621094 51.289062 C 39.621094 51.785156 39.574219 52.277344 39.476562 52.765625 C 39.378906 53.253906 39.238281 53.726562 39.046875 54.183594 C 38.855469 54.644531 38.625 55.078125 38.347656 55.492188 C 38.070312 55.90625 37.757812 56.289062 37.40625 56.640625 C 37.054688 56.992188 36.675781 57.304688 36.261719 57.578125 C 35.847656 57.855469 35.410156 58.089844 34.953125 58.277344 C 34.496094 58.46875 34.019531 58.613281 33.535156 58.710938 C 33.046875 58.804688 32.554688 58.855469 32.058594 58.855469 C 31.5625 58.855469 31.070312 58.804688 30.582031 58.710938 C 30.09375 58.613281 29.621094 58.46875 29.164062 58.277344 C 28.703125 58.089844 28.269531 57.855469 27.855469 57.578125 C 27.441406 57.304688 27.058594 56.992188 26.707031 56.640625 C 26.359375 56.289062 26.042969 55.90625 25.769531 55.492188 C 25.492188 55.078125 25.257812 54.644531 25.070312 54.183594 C 24.878906 53.726562 24.734375 53.253906 24.636719 52.765625 C 24.542969 52.277344 24.492188 51.785156 24.492188 51.289062 C 24.492188 50.792969 24.542969 50.300781 24.636719 49.8125 C 24.734375 49.328125 24.878906 48.855469 25.070312 48.394531 C 25.257812 47.9375 25.492188 47.5 25.769531 47.085938 C 26.042969 46.675781 26.359375 46.292969 26.707031 45.941406 C 27.058594 45.589844 27.441406 45.277344 27.855469 45 C 28.269531 44.722656 28.703125 44.492188 29.164062 44.300781 C 29.621094 44.109375 30.09375 43.96875 30.582031 43.871094 C 31.070312 43.773438 31.5625 43.726562 32.058594 43.726562 C 32.554688 43.726562 33.046875 43.773438 33.535156 43.871094 C 34.019531 43.96875 34.496094 44.109375 34.953125 44.300781 C 35.410156 44.492188 35.847656 44.722656 36.261719 45 C 36.675781 45.277344 37.054688 45.589844 37.40625 45.941406 C 37.757812 46.292969 38.070312 46.675781 38.347656 47.085938 C 38.625 47.5 38.855469 47.9375 39.046875 48.394531 C 39.238281 48.855469 39.378906 49.328125 39.476562 49.8125 C 39.574219 50.300781 39.621094 50.792969 39.621094 51.289062 Z M 39.621094 51.289062 " fill-opacity="1" fill-rule="nonzero"/></g><g clip-path="url(#7cc6a78a66)"><path fill="#ffffff" d="M 125.554688 148.554688 C 125.554688 149.574219 125.453125 150.585938 125.253906 151.589844 C 125.054688 152.589844 124.761719 153.5625 124.371094 154.507812 C 123.980469 155.449219 123.5 156.347656 122.933594 157.195312 C 122.363281 158.046875 121.71875 158.832031 120.996094 159.554688 C 120.277344 160.277344 119.488281 160.921875 118.640625 161.488281 C 117.789062 162.054688 116.894531 162.535156 115.949219 162.925781 C 115.007812 163.316406 114.035156 163.613281 113.03125 163.8125 C 112.03125 164.011719 111.019531 164.109375 109.996094 164.109375 C 108.976562 164.109375 107.964844 164.011719 106.960938 163.8125 C 105.960938 163.613281 104.988281 163.316406 104.042969 162.925781 C 103.101562 162.535156 102.203125 162.054688 101.355469 161.488281 C 100.503906 160.921875 99.71875 160.277344 98.996094 159.554688 C 98.273438 158.832031 97.628906 158.046875 97.0625 157.195312 C 96.496094 156.347656 96.015625 155.449219 95.625 154.507812 C 95.234375 153.5625 94.9375 152.589844 94.738281 151.589844 C 94.539062 150.585938 94.441406 149.574219 94.441406 148.554688 C 94.441406 147.53125 94.539062 146.519531 94.738281 145.519531 C 94.9375 144.515625 95.234375 143.542969 95.625 142.601562 C 96.015625 141.65625 96.496094 140.761719 97.0625 139.910156 C 97.628906 139.0625 98.273438 138.277344 98.996094 137.554688 C 99.71875 136.832031 100.503906 136.1875 101.355469 135.617188 C 102.203125 135.050781 103.101562 134.570312 104.042969 134.179688 C 104.988281 133.789062 105.960938 133.496094 106.960938 133.296875 C 107.964844 133.097656 108.976562 132.996094 109.996094 132.996094 C 111.019531 132.996094 112.03125 133.097656 113.03125 133.296875 C 114.035156 133.496094 115.007812 133.789062 115.949219 134.179688 C 116.894531 134.570312 117.789062 135.050781 118.640625 135.617188 C 119.488281 136.1875 120.277344 136.832031 120.996094 137.554688 C 121.71875 138.277344 122.363281 139.0625 122.933594 139.910156 C 123.5 140.761719 123.980469 141.65625 124.371094 142.601562 C 124.761719 143.542969 125.054688 144.515625 125.253906 145.519531 C 125.453125 146.519531 125.554688 147.53125 125.554688 148.554688 Z M 125.554688 148.554688 " fill-opacity="1" fill-rule="nonzero"/></g><g clip-path="url(#594eea6e98)"><path fill="#000000" d="M 120.652344 148.535156 C 120.652344 149.238281 120.582031 149.929688 120.445312 150.617188 C 120.308594 151.304688 120.109375 151.972656 119.839844 152.621094 C 119.570312 153.269531 119.242188 153.882812 118.855469 154.464844 C 118.464844 155.046875 118.023438 155.585938 117.527344 156.082031 C 117.03125 156.578125 116.492188 157.019531 115.910156 157.410156 C 115.328125 157.800781 114.710938 158.128906 114.066406 158.394531 C 113.417969 158.664062 112.75 158.867188 112.0625 159.003906 C 111.375 159.140625 110.679688 159.207031 109.980469 159.207031 C 109.28125 159.207031 108.585938 159.140625 107.898438 159.003906 C 107.210938 158.867188 106.542969 158.664062 105.898438 158.394531 C 105.25 158.128906 104.632812 157.800781 104.050781 157.410156 C 103.46875 157.019531 102.929688 156.578125 102.433594 156.082031 C 101.9375 155.585938 101.496094 155.046875 101.109375 154.464844 C 100.71875 153.882812 100.390625 153.269531 100.121094 152.621094 C 99.851562 151.972656 99.652344 151.304688 99.515625 150.617188 C 99.378906 149.929688 99.308594 149.238281 99.308594 148.535156 C 99.308594 147.835938 99.378906 147.140625 99.515625 146.453125 C 99.652344 145.769531 99.851562 145.101562 100.121094 144.453125 C 100.390625 143.804688 100.71875 143.191406 101.109375 142.609375 C 101.496094 142.027344 101.9375 141.488281 102.433594 140.992188 C 102.929688 140.496094 103.46875 140.054688 104.050781 139.664062 C 104.632812 139.273438 105.25 138.945312 105.898438 138.675781 C 106.542969 138.410156 107.210938 138.207031 107.898438 138.070312 C 108.585938 137.933594 109.28125 137.867188 109.980469 137.867188 C 110.679688 137.867188 111.375 137.933594 112.0625 138.070312 C 112.75 138.207031 113.417969 138.410156 114.066406 138.675781 C 114.710938 138.945312 115.328125 139.273438 115.910156 139.664062 C 116.492188 140.054688 117.03125 140.496094 117.527344 140.992188 C 118.023438 141.488281 118.464844 142.027344 118.855469 142.609375 C 119.242188 143.191406 119.570312 143.804688 119.839844 144.453125 C 120.109375 145.101562 120.308594 145.769531 120.445312 146.453125 C 120.582031 147.140625 120.652344 147.835938 120.652344 148.535156 Z M 120.652344 148.535156 " fill-opacity="1" fill-rule="nonzero"/></g><path stroke-linecap="butt" transform="matrix(0.24637, 0.717757, -0.717757, 0.24637, 89.470285, 82.142899)" fill="none" stroke-linejoin="miter" d="M -0.00130606 2.499705 L 73.697831 2.501066 " stroke="#ffffff" stroke-width="5" stroke-opacity="1" stroke-miterlimit="4"/><path stroke-linecap="butt" transform="matrix(0.713027, 0.259743, -0.259743, 0.713027, 41.988038, 52.693213)" fill="none" stroke-linejoin="miter" d="M 0.00179508 2.500444 L 33.760245 2.501838 " stroke="#ffffff" stroke-width="5" stroke-opacity="1" stroke-miterlimit="4"/><g clip-path="url(#c34d0bdc8a)"><path fill="#ffffff" d="M 151.515625 47.082031 C 151.515625 47.851562 151.4375 48.617188 151.289062 49.375 C 151.136719 50.132812 150.914062 50.867188 150.617188 51.582031 C 150.324219 52.296875 149.960938 52.972656 149.53125 53.617188 C 149.101562 54.257812 148.613281 54.851562 148.070312 55.398438 C 147.523438 55.945312 146.929688 56.429688 146.285156 56.859375 C 145.644531 57.289062 144.964844 57.652344 144.253906 57.949219 C 143.539062 58.242188 142.804688 58.464844 142.046875 58.617188 C 141.289062 58.765625 140.523438 58.84375 139.75 58.84375 C 138.980469 58.84375 138.214844 58.765625 137.457031 58.617188 C 136.699219 58.464844 135.964844 58.242188 135.25 57.949219 C 134.535156 57.652344 133.859375 57.289062 133.214844 56.859375 C 132.574219 56.429688 131.980469 55.945312 131.433594 55.398438 C 130.886719 54.851562 130.398438 54.257812 129.972656 53.617188 C 129.542969 52.972656 129.179688 52.296875 128.882812 51.582031 C 128.589844 50.867188 128.367188 50.132812 128.214844 49.375 C 128.0625 48.617188 127.988281 47.851562 127.988281 47.082031 C 127.988281 46.308594 128.0625 45.542969 128.214844 44.785156 C 128.367188 44.027344 128.589844 43.292969 128.882812 42.578125 C 129.179688 41.867188 129.542969 41.1875 129.972656 40.546875 C 130.398438 39.902344 130.886719 39.308594 131.433594 38.761719 C 131.980469 38.21875 132.574219 37.730469 133.214844 37.300781 C 133.859375 36.871094 134.535156 36.507812 135.25 36.214844 C 135.964844 35.917969 136.699219 35.695312 137.457031 35.542969 C 138.214844 35.394531 138.980469 35.316406 139.75 35.316406 C 140.523438 35.316406 141.289062 35.394531 142.046875 35.542969 C 142.804688 35.695312 143.539062 35.917969 144.253906 36.214844 C 144.964844 36.507812 145.644531 36.871094 146.285156 37.300781 C 146.929688 37.730469 147.523438 38.21875 148.070312 38.761719 C 148.613281 39.308594 149.101562 39.902344 149.53125 40.546875 C 149.960938 41.1875 150.324219 41.867188 150.617188 42.578125 C 150.914062 43.292969 151.136719 44.027344 151.289062 44.785156 C 151.4375 45.542969 151.515625 46.308594 151.515625 47.082031 Z M 151.515625 47.082031 " fill-opacity="1" fill-rule="nonzero"/></g><g clip-path="url(#b018f9c5a0)"><path fill="#000000" d="M 147.675781 46.988281 C 147.675781 47.515625 147.625 48.039062 147.523438 48.554688 C 147.417969 49.070312 147.269531 49.570312 147.066406 50.058594 C 146.863281 50.542969 146.617188 51.003906 146.324219 51.441406 C 146.035156 51.878906 145.699219 52.285156 145.328125 52.65625 C 144.957031 53.03125 144.550781 53.363281 144.113281 53.65625 C 143.675781 53.945312 143.214844 54.195312 142.726562 54.394531 C 142.242188 54.597656 141.742188 54.75 141.226562 54.851562 C 140.707031 54.953125 140.1875 55.003906 139.660156 55.003906 C 139.132812 55.003906 138.613281 54.953125 138.097656 54.851562 C 137.582031 54.75 137.078125 54.597656 136.59375 54.394531 C 136.105469 54.195312 135.644531 53.945312 135.207031 53.65625 C 134.769531 53.363281 134.367188 53.03125 133.992188 52.65625 C 133.621094 52.285156 133.289062 51.878906 132.996094 51.441406 C 132.703125 51.003906 132.457031 50.542969 132.253906 50.058594 C 132.054688 49.570312 131.902344 49.070312 131.800781 48.554688 C 131.695312 48.039062 131.644531 47.515625 131.644531 46.988281 C 131.644531 46.464844 131.695312 45.941406 131.800781 45.425781 C 131.902344 44.910156 132.054688 44.410156 132.253906 43.921875 C 132.457031 43.4375 132.703125 42.972656 132.996094 42.535156 C 133.289062 42.097656 133.621094 41.695312 133.992188 41.324219 C 134.367188 40.949219 134.769531 40.617188 135.207031 40.324219 C 135.644531 40.03125 136.105469 39.785156 136.59375 39.585938 C 137.078125 39.382812 137.582031 39.230469 138.097656 39.128906 C 138.613281 39.027344 139.132812 38.972656 139.660156 38.972656 C 140.1875 38.972656 140.707031 39.027344 141.226562 39.128906 C 141.742188 39.230469 142.242188 39.382812 142.726562 39.585938 C 143.214844 39.785156 143.675781 40.03125 144.113281 40.324219 C 144.550781 40.617188 144.957031 40.949219 145.328125 41.324219 C 145.699219 41.695312 146.035156 42.097656 146.324219 42.535156 C 146.617188 42.972656 146.863281 43.4375 147.066406 43.921875 C 147.269531 44.410156 147.417969 44.910156 147.523438 45.425781 C 147.625 45.941406 147.675781 46.464844 147.675781 46.988281 Z M 147.675781 46.988281 " fill-opacity="1" fill-rule="nonzero"/></g><path stroke-linecap="butt" transform="matrix(-0.714656, 0.255226, -0.255226, -0.714656, 130.909424, 51.368262)" fill="none" stroke-linejoin="miter" d="M 0.00245044 2.500302 L 48.058959 2.499787 " stroke="#ffffff" stroke-width="5" stroke-opacity="1" stroke-miterlimit="4"/></g></g></svg>