<svg xmlns="http://www.w3.org/2000/svg" xmlns:xlink="http://www.w3.org/1999/xlink" width="500" zoomAndPan="magnify" viewBox="0 0 375 374.999991" height="500" preserveAspectRatio="xMidYMid meet" version="1.0"><defs><clipPath id="04d04a881c"><path d="M 68 41 L 287 41 L 287 95 L 68 95 Z M 68 41 " clip-rule="nonzero"/></clipPath><clipPath id="ff373bbe36"><path d="M 187.5 -77.664062 L 452.664062 187.5 L 187.5 452.664062 L -77.664062 187.5 Z M 187.5 -77.664062 " clip-rule="nonzero"/></clipPath><clipPath id="4ab04717bb"><path d="M 187.5 -77.664062 L 452.664062 187.5 L 187.5 452.664062 L -77.664062 187.5 Z M 187.5 -77.664062 " clip-rule="nonzero"/></clipPath><clipPath id="b339a64165"><path d="M 88 280 L 307 280 L 307 334 L 88 334 Z M 88 280 " clip-rule="nonzero"/></clipPath><clipPath id="ba5a96883e"><path d="M 187.5 -77.664062 L 452.664062 187.5 L 187.5 452.664062 L -77.664062 187.5 Z M 187.5 -77.664062 " clip-rule="nonzero"/></clipPath><clipPath id="508a485a0e"><path d="M 187.5 -77.664062 L 452.664062 187.5 L 187.5 452.664062 L -77.664062 187.5 Z M 187.5 -77.664062 " clip-rule="nonzero"/></clipPath><clipPath id="ad0621d1f5"><path d="M 124 123 L 268 123 L 268 250 L 124 250 Z M 124 123 " clip-rule="nonzero"/></clipPath><clipPath id="caeb7fddbe"><path d="M 187.5 -77.664062 L 452.664062 187.5 L 187.5 452.664062 L -77.664062 187.5 Z M 187.5 -77.664062 " clip-rule="nonzero"/></clipPath><clipPath id="61c4702eec"><path d="M 187.5 -77.664062 L 452.664062 187.5 L 187.5 452.664062 L -77.664062 187.5 Z M 187.5 -77.664062 " clip-rule="nonzero"/></clipPath><clipPath id="08007ce03d"><path d="M 41 88 L 95 88 L 95 307 L 41 307 Z M 41 88 " clip-rule="nonzero"/></clipPath><clipPath id="7479b84832"><path d="M 187.5 -77.664062 L 452.664062 187.5 L 187.5 452.664062 L -77.664062 187.5 Z M 187.5 -77.664062 " clip-rule="nonzero"/></clipPath><clipPath id="7423065d8b"><path d="M 187.5 -77.664062 L 452.664062 187.5 L 187.5 452.664062 L -77.664062 187.5 Z M 187.5 -77.664062 " clip-rule="nonzero"/></clipPath><clipPath id="72341f2d8f"><path d="M 280 68 L 334 68 L 334 287 L 280 287 Z M 280 68 " clip-rule="nonzero"/></clipPath><clipPath id="defe7f8eb0"><path d="M 187.5 -77.664062 L 452.664062 187.5 L 187.5 452.664062 L -77.664062 187.5 Z M 187.5 -77.664062 " clip-rule="nonzero"/></clipPath><clipPath id="2d521e3d42"><path d="M 187.5 -77.664062 L 452.664062 187.5 L 187.5 452.664062 L -77.664062 187.5 Z M 187.5 -77.664062 " clip-rule="nonzero"/></clipPath><clipPath id="f4876c2420"><path d="M 141 137 L 253 137 L 253 188 L 141 188 Z M 141 137 " clip-rule="nonzero"/></clipPath><clipPath id="32094f3294"><path d="M 187.5 -77.664062 L 452.664062 187.5 L 187.5 452.664062 L -77.664062 187.5 Z M 187.5 -77.664062 " clip-rule="nonzero"/></clipPath><clipPath id="bfe7e09cb3"><path d="M 187.5 -77.664062 L 452.664062 187.5 L 187.5 452.664062 L -77.664062 187.5 Z M 187.5 -77.664062 " clip-rule="nonzero"/></clipPath><clipPath id="32ae3ae139"><path d="M 0.785156 0.785156 L 178.359375 0.785156 L 178.359375 178.359375 L 0.785156 178.359375 Z M 0.785156 0.785156 " clip-rule="nonzero"/></clipPath><clipPath id="b096e30841"><path d="M 60.890625 46.992188 L 100.351562 46.992188 L 100.351562 86.453125 L 60.890625 86.453125 Z M 60.890625 46.992188 " clip-rule="nonzero"/></clipPath><clipPath id="724686cfb3"><path d="M 67.121094 53.222656 L 94.441406 53.222656 L 94.441406 80.542969 L 67.121094 80.542969 Z M 67.121094 53.222656 " clip-rule="nonzero"/></clipPath><clipPath id="c8d82d9aaf"><path d="M 21.042969 40.273438 L 43.050781 40.273438 L 43.050781 62.28125 L 21.042969 62.28125 Z M 21.042969 40.273438 " clip-rule="nonzero"/></clipPath><clipPath id="03be3a0b8f"><path d="M 24.492188 43.726562 L 39.671875 43.726562 L 39.671875 58.902344 L 24.492188 58.902344 Z M 24.492188 43.726562 " clip-rule="nonzero"/></clipPath><clipPath id="fb07a6e5ab"><path d="M 94.441406 132.996094 L 125.554688 132.996094 L 125.554688 164.109375 L 94.441406 164.109375 Z M 94.441406 132.996094 " clip-rule="nonzero"/></clipPath><clipPath id="56764b807b"><path d="M 99.308594 137.867188 L 120.558594 137.867188 L 120.558594 159.113281 L 99.308594 159.113281 Z M 99.308594 137.867188 " clip-rule="nonzero"/></clipPath><clipPath id="bbf7ed0fec"><path d="M 127.988281 35.316406 L 151.515625 35.316406 L 151.515625 58.84375 L 127.988281 58.84375 Z M 127.988281 35.316406 " clip-rule="nonzero"/></clipPath><clipPath id="2a3f25b617"><path d="M 131.644531 38.972656 L 147.582031 38.972656 L 147.582031 54.910156 L 131.644531 54.910156 Z M 131.644531 38.972656 " clip-rule="nonzero"/></clipPath><clipPath id="bb056cd12b"><rect x="0" width="179" y="0" height="179"/></clipPath></defs><rect x="-37.5" width="450" fill="#ffffff" y="-37.499999" height="449.999989" fill-opacity="1"/><rect x="-37.5" width="450" fill="#000000" y="-37.499999" height="449.999989" fill-opacity="1"/><g clip-path="url(#04d04a881c)"><g clip-path="url(#ff373bbe36)"><g clip-path="url(#4ab04717bb)"><path fill="#ffffff" d="M 252.25 71.105469 C 247.53125 68.480469 242.644531 66.136719 237.597656 64.085938 C 221.644531 57.617188 204.792969 54.339844 187.507812 54.339844 C 170.222656 54.339844 153.367188 57.617188 137.410156 64.09375 C 135.4375 64.898438 133.488281 65.738281 131.574219 66.628906 L 68.558594 41.277344 L 121.632812 94.351562 C 160.941406 66.507812 214.070312 66.507812 253.382812 94.351562 L 286.859375 60.875 Z M 252.25 71.105469 " fill-opacity="1" fill-rule="nonzero"/></g></g></g><g clip-path="url(#b339a64165)"><g clip-path="url(#ba5a96883e)"><g clip-path="url(#508a485a0e)"><path fill="#ffffff" d="M 306.441406 333.667969 L 253.375 280.597656 C 214.066406 308.441406 160.941406 308.433594 121.625 280.597656 L 88.144531 314.078125 L 122.742188 303.847656 C 127.464844 306.46875 132.351562 308.816406 137.394531 310.863281 C 153.347656 317.332031 170.203125 320.609375 187.484375 320.609375 C 204.769531 320.609375 221.625 317.332031 237.574219 310.863281 C 239.554688 310.066406 241.496094 309.21875 243.425781 308.332031 Z M 306.441406 333.667969 " fill-opacity="1" fill-rule="nonzero"/></g></g></g><g clip-path="url(#ad0621d1f5)"><g clip-path="url(#caeb7fddbe)"><g clip-path="url(#61c4702eec)"><path fill="#ffffff" d="M 124.796875 249.480469 L 169.453125 187.070312 L 124.277344 123.929688 L 267.152344 188.671875 Z M 158.402344 151.960938 L 183.515625 187.070312 L 157.878906 222.894531 L 238.734375 188.355469 Z M 158.402344 151.960938 " fill-opacity="1" fill-rule="nonzero"/></g></g></g><g clip-path="url(#08007ce03d)"><g clip-path="url(#7479b84832)"><g clip-path="url(#7423065d8b)"><path fill="#ffffff" d="M 94.371094 121.597656 L 80.710938 107.9375 L 60.894531 88.117188 L 71.125 122.730469 C 68.503906 127.449219 66.15625 132.335938 64.109375 137.382812 C 57.636719 153.332031 54.363281 170.1875 54.363281 187.472656 C 54.363281 204.757812 57.636719 221.609375 64.109375 237.5625 C 64.914062 239.535156 65.753906 241.484375 66.640625 243.398438 L 41.296875 306.40625 L 80.707031 267 L 94.371094 253.332031 C 66.539062 214.03125 66.53125 160.90625 94.371094 121.597656 Z M 94.371094 121.597656 " fill-opacity="1" fill-rule="nonzero"/></g></g></g><g clip-path="url(#72341f2d8f)"><g clip-path="url(#defe7f8eb0)"><g clip-path="url(#2d521e3d42)"><path fill="#ffffff" d="M 314.105469 286.824219 L 303.875 252.230469 C 306.496094 247.507812 308.84375 242.621094 310.890625 237.574219 C 317.363281 221.625 320.636719 204.769531 320.644531 187.480469 C 320.644531 170.195312 317.367188 153.339844 310.898438 137.390625 C 310.101562 135.410156 309.253906 133.46875 308.367188 131.539062 L 333.695312 68.53125 L 280.621094 121.605469 C 308.460938 160.914062 308.457031 214.039062 280.621094 253.355469 L 314.097656 286.832031 Z M 314.105469 286.824219 " fill-opacity="1" fill-rule="nonzero"/></g></g></g><g clip-path="url(#f4876c2420)"><g clip-path="url(#32094f3294)"><g clip-path="url(#bfe7e09cb3)"><path fill="#ffffff" d="M 176.476562 187.070312 L 252.945312 187.070312 L 141.339844 137.953125 Z M 176.476562 187.070312 " fill-opacity="1" fill-rule="nonzero"/></g></g></g><g transform="matrix(1, 0, 0, 1, 98, 98)"><g clip-path="url(#bb056cd12b)"><g clip-path="url(#32ae3ae139)"><path fill="#ffffff" d="M 178.359375 89.574219 C 178.359375 91.023438 178.324219 92.476562 178.253906 93.929688 C 178.179688 95.378906 178.074219 96.828125 177.933594 98.273438 C 177.789062 99.722656 177.613281 101.164062 177.398438 102.601562 C 177.183594 104.039062 176.9375 105.46875 176.652344 106.894531 C 176.371094 108.320312 176.050781 109.734375 175.699219 111.144531 C 175.34375 112.554688 174.957031 113.957031 174.535156 115.347656 C 174.113281 116.734375 173.660156 118.117188 173.167969 119.484375 C 172.679688 120.851562 172.15625 122.207031 171.601562 123.550781 C 171.042969 124.890625 170.457031 126.21875 169.835938 127.535156 C 169.214844 128.847656 168.558594 130.144531 167.875 131.425781 C 167.191406 132.707031 166.472656 133.972656 165.726562 135.21875 C 164.980469 136.464844 164.203125 137.691406 163.394531 138.898438 C 162.589844 140.109375 161.753906 141.296875 160.886719 142.460938 C 160.019531 143.628906 159.128906 144.773438 158.207031 145.898438 C 157.285156 147.019531 156.335938 148.121094 155.359375 149.199219 C 154.382812 150.273438 153.382812 151.328125 152.355469 152.355469 C 151.328125 153.382812 150.273438 154.382812 149.199219 155.359375 C 148.121094 156.335938 147.019531 157.285156 145.898438 158.207031 C 144.773438 159.128906 143.628906 160.019531 142.460938 160.886719 C 141.296875 161.753906 140.109375 162.589844 138.898438 163.394531 C 137.691406 164.203125 136.464844 164.980469 135.21875 165.726562 C 133.972656 166.472656 132.707031 167.191406 131.425781 167.875 C 130.144531 168.558594 128.847656 169.214844 127.535156 169.835938 C 126.21875 170.457031 124.890625 171.042969 123.550781 171.601562 C 122.207031 172.15625 120.851562 172.679688 119.484375 173.167969 C 118.117188 173.660156 116.734375 174.113281 115.347656 174.535156 C 113.957031 174.957031 112.554688 175.34375 111.144531 175.699219 C 109.734375 176.050781 108.320312 176.371094 106.894531 176.652344 C 105.46875 176.9375 104.039062 177.183594 102.601562 177.398438 C 101.164062 177.613281 99.722656 177.789062 98.273438 177.933594 C 96.828125 178.074219 95.378906 178.179688 93.929688 178.253906 C 92.476562 178.324219 91.027344 178.359375 89.574219 178.359375 C 88.121094 178.359375 86.667969 178.324219 85.214844 178.253906 C 83.765625 178.179688 82.316406 178.074219 80.871094 177.933594 C 79.421875 177.789062 77.980469 177.613281 76.542969 177.398438 C 75.105469 177.183594 73.675781 176.9375 72.25 176.652344 C 70.824219 176.371094 69.410156 176.050781 68 175.699219 C 66.589844 175.34375 65.1875 174.957031 63.796875 174.535156 C 62.410156 174.113281 61.027344 173.660156 59.660156 173.167969 C 58.292969 172.679688 56.9375 172.15625 55.59375 171.601562 C 54.253906 171.042969 52.925781 170.457031 51.609375 169.835938 C 50.296875 169.214844 49 168.558594 47.71875 167.875 C 46.4375 167.191406 45.171875 166.472656 43.925781 165.726562 C 42.679688 164.980469 41.453125 164.203125 40.246094 163.394531 C 39.035156 162.589844 37.847656 161.753906 36.683594 160.886719 C 35.515625 160.019531 34.371094 159.128906 33.246094 158.207031 C 32.125 157.285156 31.023438 156.335938 29.945312 155.359375 C 28.871094 154.382812 27.816406 153.382812 26.789062 152.355469 C 25.761719 151.328125 24.761719 150.273438 23.785156 149.199219 C 22.808594 148.121094 21.859375 147.019531 20.9375 145.898438 C 20.015625 144.773438 19.125 143.628906 18.257812 142.460938 C 17.390625 141.296875 16.554688 140.109375 15.75 138.898438 C 14.941406 137.691406 14.164062 136.464844 13.417969 135.21875 C 12.671875 133.972656 11.953125 132.707031 11.269531 131.425781 C 10.585938 130.144531 9.929688 128.847656 9.308594 127.535156 C 8.6875 126.21875 8.101562 124.890625 7.542969 123.550781 C 6.988281 122.207031 6.464844 120.851562 5.976562 119.484375 C 5.484375 118.117188 5.03125 116.734375 4.609375 115.347656 C 4.1875 113.957031 3.800781 112.554688 3.445312 111.144531 C 3.09375 109.734375 2.773438 108.320312 2.492188 106.894531 C 2.207031 105.46875 1.960938 104.039062 1.746094 102.601562 C 1.53125 101.164062 1.355469 99.722656 1.210938 98.273438 C 1.070312 96.828125 0.964844 95.378906 0.890625 93.929688 C 0.820312 92.476562 0.785156 91.023438 0.785156 89.574219 C 0.785156 88.121094 0.820312 86.667969 0.890625 85.214844 C 0.964844 83.765625 1.070312 82.316406 1.210938 80.871094 C 1.355469 79.421875 1.53125 77.980469 1.746094 76.542969 C 1.960938 75.105469 2.207031 73.675781 2.492188 72.25 C 2.773438 70.824219 3.09375 69.410156 3.445312 68 C 3.800781 66.589844 4.1875 65.1875 4.609375 63.796875 C 5.03125 62.410156 5.484375 61.027344 5.976562 59.660156 C 6.464844 58.292969 6.988281 56.9375 7.542969 55.59375 C 8.101562 54.253906 8.6875 52.925781 9.308594 51.609375 C 9.929688 50.296875 10.585938 49 11.269531 47.71875 C 11.953125 46.4375 12.671875 45.171875 13.417969 43.925781 C 14.164062 42.679688 14.941406 41.453125 15.75 40.246094 C 16.554688 39.035156 17.390625 37.847656 18.257812 36.683594 C 19.125 35.515625 20.015625 34.371094 20.9375 33.246094 C 21.859375 32.125 22.808594 31.023438 23.785156 29.945312 C 24.761719 28.871094 25.761719 27.816406 26.789062 26.789062 C 27.816406 25.761719 28.871094 24.761719 29.945312 23.785156 C 31.023438 22.808594 32.125 21.859375 33.246094 20.9375 C 34.371094 20.015625 35.515625 19.125 36.683594 18.257812 C 37.847656 17.390625 39.035156 16.554688 40.246094 15.75 C 41.453125 14.941406 42.679688 14.164062 43.925781 13.417969 C 45.171875 12.671875 46.4375 11.953125 47.71875 11.269531 C 49 10.585938 50.296875 9.929688 51.609375 9.308594 C 52.925781 8.6875 54.253906 8.101562 55.59375 7.542969 C 56.9375 6.988281 58.292969 6.464844 59.660156 5.976562 C 61.027344 5.484375 62.410156 5.03125 63.796875 4.609375 C 65.1875 4.1875 66.589844 3.800781 68 3.445312 C 69.410156 3.09375 70.824219 2.773438 72.25 2.492188 C 73.675781 2.207031 75.105469 1.960938 76.542969 1.746094 C 77.980469 1.53125 79.421875 1.355469 80.871094 1.210938 C 82.316406 1.070312 83.765625 0.964844 85.214844 0.890625 C 86.667969 0.820312 88.121094 0.785156 89.574219 0.785156 C 91.027344 0.785156 92.476562 0.820312 93.929688 0.890625 C 95.378906 0.964844 96.828125 1.070312 98.273438 1.210938 C 99.722656 1.355469 101.164062 1.53125 102.601562 1.746094 C 104.039062 1.960938 105.46875 2.207031 106.894531 2.492188 C 108.320312 2.773438 109.734375 3.09375 111.144531 3.445312 C 112.554688 3.800781 113.957031 4.1875 115.347656 4.609375 C 116.734375 5.03125 118.117188 5.484375 119.484375 5.976562 C 120.851562 6.464844 122.207031 6.988281 123.550781 7.542969 C 124.890625 8.101562 126.21875 8.6875 127.535156 9.308594 C 128.847656 9.929688 130.144531 10.585938 131.425781 11.269531 C 132.707031 11.953125 133.972656 12.671875 135.21875 13.417969 C 136.464844 14.164062 137.691406 14.941406 138.898438 15.75 C 140.109375 16.554688 141.296875 17.390625 142.460938 18.257812 C 143.628906 19.125 144.773438 20.015625 145.898438 20.9375 C 147.019531 21.859375 148.121094 22.808594 149.199219 23.785156 C 150.273438 24.761719 151.328125 25.761719 152.355469 26.789062 C 153.382812 27.816406 154.382812 28.871094 155.359375 29.945312 C 156.335938 31.023438 157.285156 32.125 158.207031 33.246094 C 159.128906 34.371094 160.019531 35.515625 160.886719 36.683594 C 161.753906 37.847656 162.589844 39.035156 163.394531 40.246094 C 164.203125 41.453125 164.980469 42.679688 165.726562 43.925781 C 166.472656 45.171875 167.191406 46.4375 167.875 47.71875 C 168.558594 49 169.214844 50.296875 169.835938 51.609375 C 170.457031 52.925781 171.042969 54.253906 171.601562 55.59375 C 172.15625 56.9375 172.679688 58.292969 173.167969 59.660156 C 173.660156 61.027344 174.113281 62.410156 174.535156 63.796875 C 174.957031 65.1875 175.34375 66.589844 175.699219 68 C 176.050781 69.410156 176.371094 70.824219 176.652344 72.25 C 176.9375 73.675781 177.183594 75.105469 177.398438 76.542969 C 177.613281 77.980469 177.789062 79.421875 177.933594 80.871094 C 178.074219 82.316406 178.179688 83.765625 178.253906 85.214844 C 178.324219 86.667969 178.359375 88.121094 178.359375 89.574219 Z M 178.359375 89.574219 " fill-opacity="1" fill-rule="nonzero"/></g><g clip-path="url(#b096e30841)"><path fill="#000000" d="M 100.660156 66.878906 C 100.660156 67.527344 100.628906 68.179688 100.566406 68.828125 C 100.5 69.476562 100.40625 70.117188 100.277344 70.757812 C 100.152344 71.394531 99.992188 72.027344 99.804688 72.648438 C 99.617188 73.273438 99.398438 73.886719 99.148438 74.488281 C 98.898438 75.089844 98.621094 75.675781 98.3125 76.25 C 98.007812 76.824219 97.671875 77.382812 97.308594 77.925781 C 96.949219 78.464844 96.558594 78.988281 96.148438 79.492188 C 95.734375 79.996094 95.296875 80.476562 94.835938 80.9375 C 94.375 81.398438 93.894531 81.835938 93.390625 82.25 C 92.886719 82.660156 92.363281 83.050781 91.824219 83.410156 C 91.28125 83.773438 90.722656 84.105469 90.148438 84.414062 C 89.574219 84.722656 88.988281 85 88.386719 85.25 C 87.785156 85.496094 87.171875 85.71875 86.546875 85.90625 C 85.925781 86.09375 85.292969 86.253906 84.65625 86.378906 C 84.015625 86.507812 83.375 86.601562 82.726562 86.667969 C 82.078125 86.730469 81.425781 86.761719 80.777344 86.761719 C 80.125 86.761719 79.476562 86.730469 78.828125 86.667969 C 78.179688 86.601562 77.535156 86.507812 76.898438 86.378906 C 76.257812 86.253906 75.628906 86.09375 75.003906 85.90625 C 74.382812 85.71875 73.769531 85.496094 73.167969 85.25 C 72.566406 85 71.976562 84.722656 71.402344 84.414062 C 70.828125 84.105469 70.269531 83.773438 69.730469 83.410156 C 69.1875 83.050781 68.664062 82.660156 68.160156 82.25 C 67.660156 81.835938 67.175781 81.398438 66.714844 80.9375 C 66.253906 80.476562 65.820312 79.996094 65.40625 79.492188 C 64.992188 78.988281 64.605469 78.464844 64.242188 77.925781 C 63.882812 77.382812 63.546875 76.824219 63.238281 76.25 C 62.933594 75.675781 62.65625 75.089844 62.40625 74.488281 C 62.15625 73.886719 61.9375 73.273438 61.746094 72.648438 C 61.558594 72.027344 61.402344 71.394531 61.273438 70.757812 C 61.148438 70.117188 61.050781 69.476562 60.988281 68.828125 C 60.921875 68.179688 60.890625 67.527344 60.890625 66.878906 C 60.890625 66.226562 60.921875 65.578125 60.988281 64.929688 C 61.050781 64.28125 61.148438 63.636719 61.273438 63 C 61.402344 62.359375 61.558594 61.730469 61.746094 61.105469 C 61.9375 60.480469 62.15625 59.871094 62.40625 59.269531 C 62.65625 58.667969 62.933594 58.078125 63.238281 57.503906 C 63.546875 56.929688 63.882812 56.371094 64.242188 55.832031 C 64.605469 55.289062 64.992188 54.765625 65.40625 54.261719 C 65.820312 53.757812 66.253906 53.277344 66.714844 52.816406 C 67.175781 52.355469 67.660156 51.917969 68.160156 51.507812 C 68.664062 51.09375 69.1875 50.707031 69.730469 50.34375 C 70.269531 49.980469 70.828125 49.648438 71.402344 49.339844 C 71.976562 49.035156 72.566406 48.757812 73.167969 48.507812 C 73.769531 48.257812 74.382812 48.039062 75.003906 47.847656 C 75.628906 47.660156 76.257812 47.503906 76.898438 47.375 C 77.535156 47.25 78.179688 47.152344 78.828125 47.089844 C 79.476562 47.023438 80.125 46.992188 80.777344 46.992188 C 81.425781 46.992188 82.078125 47.023438 82.726562 47.089844 C 83.375 47.152344 84.015625 47.25 84.65625 47.375 C 85.292969 47.503906 85.925781 47.660156 86.546875 47.847656 C 87.171875 48.039062 87.785156 48.257812 88.386719 48.507812 C 88.988281 48.757812 89.574219 49.035156 90.148438 49.339844 C 90.722656 49.648438 91.28125 49.980469 91.824219 50.34375 C 92.363281 50.707031 92.886719 51.09375 93.390625 51.507812 C 93.894531 51.917969 94.375 52.355469 94.835938 52.816406 C 95.296875 53.277344 95.734375 53.757812 96.148438 54.261719 C 96.558594 54.765625 96.949219 55.289062 97.308594 55.832031 C 97.671875 56.371094 98.007812 56.929688 98.3125 57.503906 C 98.621094 58.078125 98.898438 58.667969 99.148438 59.269531 C 99.398438 59.871094 99.617188 60.480469 99.804688 61.105469 C 99.992188 61.730469 100.152344 62.359375 100.277344 63 C 100.40625 63.636719 100.5 64.28125 100.566406 64.929688 C 100.628906 65.578125 100.660156 66.226562 100.660156 66.878906 Z M 100.660156 66.878906 " fill-opacity="1" fill-rule="nonzero"/></g><g clip-path="url(#724686cfb3)"><path fill="#ffffff" d="M 94.441406 66.882812 C 94.441406 67.777344 94.351562 68.667969 94.175781 69.546875 C 94.003906 70.425781 93.742188 71.28125 93.398438 72.109375 C 93.058594 72.9375 92.636719 73.726562 92.136719 74.46875 C 91.640625 75.214844 91.074219 75.90625 90.4375 76.539062 C 89.804688 77.175781 89.113281 77.742188 88.371094 78.238281 C 87.625 78.738281 86.835938 79.160156 86.007812 79.5 C 85.179688 79.84375 84.324219 80.105469 83.445312 80.277344 C 82.566406 80.453125 81.675781 80.542969 80.78125 80.542969 C 79.882812 80.542969 78.996094 80.453125 78.117188 80.277344 C 77.234375 80.105469 76.382812 79.84375 75.554688 79.5 C 74.722656 79.160156 73.9375 78.738281 73.191406 78.238281 C 72.445312 77.742188 71.757812 77.175781 71.121094 76.539062 C 70.488281 75.90625 69.921875 75.214844 69.421875 74.46875 C 68.925781 73.726562 68.503906 72.9375 68.160156 72.109375 C 67.816406 71.28125 67.558594 70.425781 67.382812 69.546875 C 67.207031 68.667969 67.121094 67.777344 67.121094 66.882812 C 67.121094 65.984375 67.207031 65.097656 67.382812 64.21875 C 67.558594 63.335938 67.816406 62.484375 68.160156 61.65625 C 68.503906 60.824219 68.925781 60.039062 69.421875 59.292969 C 69.921875 58.546875 70.488281 57.855469 71.121094 57.222656 C 71.757812 56.589844 72.445312 56.023438 73.191406 55.523438 C 73.9375 55.027344 74.722656 54.605469 75.554688 54.261719 C 76.382812 53.917969 77.234375 53.660156 78.117188 53.484375 C 78.996094 53.308594 79.882812 53.222656 80.78125 53.222656 C 81.675781 53.222656 82.566406 53.308594 83.445312 53.484375 C 84.324219 53.660156 85.179688 53.917969 86.007812 54.261719 C 86.835938 54.605469 87.625 55.027344 88.371094 55.523438 C 89.113281 56.023438 89.804688 56.589844 90.4375 57.222656 C 91.074219 57.855469 91.640625 58.546875 92.136719 59.292969 C 92.636719 60.039062 93.058594 60.824219 93.398438 61.65625 C 93.742188 62.484375 94.003906 63.335938 94.175781 64.21875 C 94.351562 65.097656 94.441406 65.984375 94.441406 66.882812 Z M 94.441406 66.882812 " fill-opacity="1" fill-rule="nonzero"/></g><g clip-path="url(#c8d82d9aaf)"><path fill="#000000" d="M 43.074219 51.289062 C 43.074219 52.011719 43.003906 52.730469 42.863281 53.4375 C 42.71875 54.148438 42.511719 54.835938 42.234375 55.503906 C 41.957031 56.171875 41.617188 56.808594 41.21875 57.410156 C 40.816406 58.011719 40.359375 58.566406 39.847656 59.078125 C 39.335938 59.589844 38.777344 60.046875 38.175781 60.449219 C 37.578125 60.851562 36.941406 61.191406 36.273438 61.464844 C 35.605469 61.742188 34.917969 61.953125 34.207031 62.09375 C 33.496094 62.234375 32.78125 62.304688 32.058594 62.304688 C 31.335938 62.304688 30.617188 62.234375 29.910156 62.09375 C 29.199219 61.953125 28.511719 61.742188 27.84375 61.464844 C 27.175781 61.191406 26.539062 60.851562 25.9375 60.449219 C 25.335938 60.046875 24.78125 59.589844 24.269531 59.078125 C 23.757812 58.566406 23.300781 58.011719 22.898438 57.410156 C 22.496094 56.808594 22.15625 56.171875 21.882812 55.503906 C 21.605469 54.835938 21.394531 54.148438 21.253906 53.4375 C 21.113281 52.730469 21.042969 52.011719 21.042969 51.289062 C 21.042969 50.566406 21.113281 49.851562 21.253906 49.140625 C 21.394531 48.429688 21.605469 47.742188 21.882812 47.074219 C 22.15625 46.40625 22.496094 45.769531 22.898438 45.167969 C 23.300781 44.570312 23.757812 44.011719 24.269531 43.5 C 24.78125 42.988281 25.335938 42.53125 25.9375 42.128906 C 26.539062 41.730469 27.175781 41.390625 27.84375 41.113281 C 28.511719 40.835938 29.199219 40.628906 29.910156 40.484375 C 30.617188 40.34375 31.335938 40.273438 32.058594 40.273438 C 32.78125 40.273438 33.496094 40.34375 34.207031 40.484375 C 34.917969 40.628906 35.605469 40.835938 36.273438 41.113281 C 36.941406 41.390625 37.578125 41.730469 38.175781 42.128906 C 38.777344 42.53125 39.335938 42.988281 39.847656 43.5 C 40.359375 44.011719 40.816406 44.570312 41.21875 45.167969 C 41.617188 45.769531 41.957031 46.40625 42.234375 47.074219 C 42.511719 47.742188 42.71875 48.429688 42.863281 49.140625 C 43.003906 49.851562 43.074219 50.566406 43.074219 51.289062 Z M 43.074219 51.289062 " fill-opacity="1" fill-rule="nonzero"/></g><g clip-path="url(#03be3a0b8f)"><path fill="#ffffff" d="M 39.671875 51.3125 C 39.671875 51.8125 39.621094 52.304688 39.523438 52.792969 C 39.425781 53.28125 39.285156 53.757812 39.09375 54.21875 C 38.902344 54.679688 38.667969 55.117188 38.390625 55.53125 C 38.113281 55.945312 37.800781 56.328125 37.449219 56.679688 C 37.09375 57.03125 36.710938 57.347656 36.296875 57.625 C 35.882812 57.898438 35.445312 58.132812 34.984375 58.324219 C 34.527344 58.515625 34.050781 58.660156 33.5625 58.757812 C 33.074219 58.855469 32.578125 58.902344 32.082031 58.902344 C 31.582031 58.902344 31.089844 58.855469 30.601562 58.757812 C 30.113281 58.660156 29.636719 58.515625 29.179688 58.324219 C 28.71875 58.132812 28.28125 57.898438 27.867188 57.625 C 27.453125 57.347656 27.066406 57.03125 26.714844 56.679688 C 26.363281 56.328125 26.050781 55.945312 25.773438 55.53125 C 25.496094 55.117188 25.261719 54.679688 25.070312 54.21875 C 24.878906 53.757812 24.734375 53.28125 24.640625 52.792969 C 24.542969 52.304688 24.492188 51.8125 24.492188 51.3125 C 24.492188 50.816406 24.542969 50.320312 24.640625 49.832031 C 24.734375 49.34375 24.878906 48.871094 25.070312 48.410156 C 25.261719 47.949219 25.496094 47.511719 25.773438 47.097656 C 26.050781 46.683594 26.363281 46.300781 26.714844 45.949219 C 27.066406 45.59375 27.453125 45.28125 27.867188 45.003906 C 28.28125 44.726562 28.71875 44.492188 29.179688 44.300781 C 29.636719 44.113281 30.113281 43.96875 30.601562 43.871094 C 31.089844 43.773438 31.582031 43.726562 32.082031 43.726562 C 32.578125 43.726562 33.074219 43.773438 33.5625 43.871094 C 34.050781 43.96875 34.527344 44.113281 34.984375 44.300781 C 35.445312 44.492188 35.882812 44.726562 36.296875 45.003906 C 36.710938 45.28125 37.09375 45.59375 37.449219 45.949219 C 37.800781 46.300781 38.113281 46.683594 38.390625 47.097656 C 38.667969 47.511719 38.902344 47.949219 39.09375 48.410156 C 39.285156 48.871094 39.425781 49.34375 39.523438 49.832031 C 39.621094 50.320312 39.671875 50.816406 39.671875 51.3125 Z M 39.671875 51.3125 " fill-opacity="1" fill-rule="nonzero"/></g><g clip-path="url(#fb07a6e5ab)"><path fill="#000000" d="M 125.519531 148.535156 C 125.519531 149.554688 125.417969 150.566406 125.21875 151.566406 C 125.019531 152.566406 124.726562 153.539062 124.335938 154.480469 C 123.945312 155.425781 123.464844 156.320312 122.898438 157.167969 C 122.332031 158.015625 121.6875 158.800781 120.96875 159.523438 C 120.246094 160.246094 119.460938 160.890625 118.613281 161.457031 C 117.765625 162.023438 116.867188 162.5 115.925781 162.890625 C 114.984375 163.28125 114.011719 163.578125 113.011719 163.777344 C 112.011719 163.976562 111 164.074219 109.980469 164.074219 C 108.960938 164.074219 107.949219 163.976562 106.949219 163.777344 C 105.949219 163.578125 104.976562 163.28125 104.035156 162.890625 C 103.089844 162.5 102.195312 162.023438 101.347656 161.457031 C 100.5 160.890625 99.714844 160.246094 98.992188 159.523438 C 98.269531 158.800781 97.625 158.015625 97.058594 157.167969 C 96.492188 156.320312 96.015625 155.425781 95.625 154.480469 C 95.234375 153.539062 94.9375 152.566406 94.738281 151.566406 C 94.539062 150.566406 94.441406 149.554688 94.441406 148.535156 C 94.441406 147.515625 94.539062 146.503906 94.738281 145.503906 C 94.9375 144.503906 95.234375 143.53125 95.625 142.589844 C 96.015625 141.648438 96.492188 140.75 97.058594 139.902344 C 97.625 139.054688 98.269531 138.269531 98.992188 137.546875 C 99.714844 136.828125 100.5 136.183594 101.347656 135.617188 C 102.195312 135.050781 103.089844 134.570312 104.035156 134.179688 C 104.976562 133.789062 105.949219 133.496094 106.949219 133.296875 C 107.949219 133.097656 108.960938 132.996094 109.980469 132.996094 C 111 132.996094 112.011719 133.097656 113.011719 133.296875 C 114.011719 133.496094 114.984375 133.789062 115.925781 134.179688 C 116.867188 134.570312 117.765625 135.050781 118.613281 135.617188 C 119.460938 136.183594 120.246094 136.828125 120.96875 137.546875 C 121.6875 138.269531 122.332031 139.054688 122.898438 139.902344 C 123.464844 140.75 123.945312 141.648438 124.335938 142.589844 C 124.726562 143.53125 125.019531 144.503906 125.21875 145.503906 C 125.417969 146.503906 125.519531 147.515625 125.519531 148.535156 Z M 125.519531 148.535156 " fill-opacity="1" fill-rule="nonzero"/></g><g clip-path="url(#56764b807b)"><path fill="#ffffff" d="M 120.558594 148.488281 C 120.558594 149.1875 120.488281 149.878906 120.351562 150.5625 C 120.21875 151.246094 120.015625 151.910156 119.75 152.554688 C 119.480469 153.199219 119.15625 153.8125 118.765625 154.390625 C 118.378906 154.972656 117.9375 155.507812 117.445312 156 C 116.953125 156.496094 116.414062 156.933594 115.835938 157.324219 C 115.253906 157.710938 114.644531 158.039062 114 158.304688 C 113.355469 158.570312 112.691406 158.773438 112.007812 158.910156 C 111.320312 159.046875 110.628906 159.113281 109.933594 159.113281 C 109.234375 159.113281 108.542969 159.046875 107.859375 158.910156 C 107.175781 158.773438 106.511719 158.570312 105.867188 158.304688 C 105.222656 158.039062 104.609375 157.710938 104.03125 157.324219 C 103.449219 156.933594 102.914062 156.496094 102.421875 156 C 101.925781 155.507812 101.488281 154.972656 101.101562 154.390625 C 100.710938 153.8125 100.386719 153.199219 100.117188 152.554688 C 99.851562 151.910156 99.648438 151.246094 99.511719 150.5625 C 99.378906 149.878906 99.308594 149.1875 99.308594 148.488281 C 99.308594 147.792969 99.378906 147.101562 99.511719 146.417969 C 99.648438 145.734375 99.851562 145.066406 100.117188 144.421875 C 100.386719 143.777344 100.710938 143.167969 101.101562 142.585938 C 101.488281 142.007812 101.925781 141.46875 102.421875 140.976562 C 102.914062 140.484375 103.449219 140.042969 104.03125 139.65625 C 104.609375 139.269531 105.222656 138.941406 105.867188 138.675781 C 106.511719 138.40625 107.175781 138.207031 107.859375 138.070312 C 108.542969 137.933594 109.234375 137.867188 109.933594 137.867188 C 110.628906 137.867188 111.320312 137.933594 112.007812 138.070312 C 112.691406 138.207031 113.355469 138.40625 114 138.675781 C 114.644531 138.941406 115.253906 139.269531 115.835938 139.65625 C 116.414062 140.042969 116.953125 140.484375 117.445312 140.976562 C 117.9375 141.46875 118.378906 142.007812 118.765625 142.585938 C 119.15625 143.167969 119.480469 143.777344 119.75 144.421875 C 120.015625 145.066406 120.21875 145.734375 120.351562 146.417969 C 120.488281 147.101562 120.558594 147.792969 120.558594 148.488281 Z M 120.558594 148.488281 " fill-opacity="1" fill-rule="nonzero"/></g><path stroke-linecap="butt" transform="matrix(0.24637, 0.717757, -0.717757, 0.24637, 89.470285, 82.142884)" fill="none" stroke-linejoin="miter" d="M -0.00128811 2.499711 L 73.697849 2.501072 " stroke="#000000" stroke-width="5" stroke-opacity="1" stroke-miterlimit="4"/><path stroke-linecap="butt" transform="matrix(0.713027, 0.259743, -0.259743, 0.713027, 41.988038, 52.693213)" fill="none" stroke-linejoin="miter" d="M 0.00179508 2.500444 L 33.760245 2.501838 " stroke="#000000" stroke-width="5" stroke-opacity="1" stroke-miterlimit="4"/><g clip-path="url(#bbf7ed0fec)"><path fill="#000000" d="M 151.335938 46.992188 C 151.335938 47.757812 151.261719 48.515625 151.113281 49.269531 C 150.960938 50.019531 150.742188 50.75 150.449219 51.457031 C 150.152344 52.167969 149.792969 52.839844 149.367188 53.476562 C 148.941406 54.113281 148.457031 54.703125 147.917969 55.246094 C 147.375 55.789062 146.785156 56.273438 146.148438 56.699219 C 145.511719 57.125 144.835938 57.484375 144.128906 57.777344 C 143.421875 58.070312 142.691406 58.292969 141.941406 58.441406 C 141.1875 58.589844 140.429688 58.664062 139.664062 58.664062 C 138.894531 58.664062 138.136719 58.589844 137.386719 58.441406 C 136.632812 58.292969 135.902344 58.070312 135.195312 57.777344 C 134.488281 57.484375 133.8125 57.125 133.175781 56.699219 C 132.539062 56.273438 131.949219 55.789062 131.40625 55.246094 C 130.867188 54.703125 130.382812 54.113281 129.957031 53.476562 C 129.53125 52.839844 129.171875 52.167969 128.878906 51.457031 C 128.585938 50.75 128.363281 50.019531 128.214844 49.269531 C 128.0625 48.515625 127.988281 47.757812 127.988281 46.992188 C 127.988281 46.226562 128.0625 45.464844 128.214844 44.714844 C 128.363281 43.960938 128.585938 43.230469 128.878906 42.523438 C 129.171875 41.816406 129.53125 41.144531 129.957031 40.507812 C 130.382812 39.867188 130.867188 39.277344 131.40625 38.738281 C 131.949219 38.195312 132.539062 37.710938 133.175781 37.285156 C 133.8125 36.859375 134.488281 36.5 135.195312 36.207031 C 135.902344 35.914062 136.632812 35.691406 137.386719 35.542969 C 138.136719 35.394531 138.894531 35.316406 139.664062 35.316406 C 140.429688 35.316406 141.1875 35.394531 141.941406 35.542969 C 142.691406 35.691406 143.421875 35.914062 144.128906 36.207031 C 144.835938 36.5 145.511719 36.859375 146.148438 37.285156 C 146.785156 37.710938 147.375 38.195312 147.917969 38.738281 C 148.457031 39.277344 148.941406 39.867188 149.367188 40.507812 C 149.792969 41.144531 150.152344 41.816406 150.449219 42.523438 C 150.742188 43.230469 150.960938 43.960938 151.113281 44.714844 C 151.261719 45.464844 151.335938 46.226562 151.335938 46.992188 Z M 151.335938 46.992188 " fill-opacity="1" fill-rule="nonzero"/></g><g clip-path="url(#2a3f25b617)"><path fill="#ffffff" d="M 147.582031 46.941406 C 147.582031 47.464844 147.53125 47.984375 147.429688 48.496094 C 147.328125 49.011719 147.175781 49.507812 146.976562 49.992188 C 146.773438 50.476562 146.53125 50.933594 146.238281 51.371094 C 145.949219 51.804688 145.617188 52.207031 145.246094 52.578125 C 144.878906 52.945312 144.476562 53.277344 144.039062 53.566406 C 143.605469 53.859375 143.144531 54.105469 142.664062 54.304688 C 142.179688 54.503906 141.679688 54.65625 141.167969 54.757812 C 140.65625 54.859375 140.136719 54.910156 139.613281 54.910156 C 139.089844 54.910156 138.570312 54.859375 138.058594 54.757812 C 137.546875 54.65625 137.046875 54.503906 136.5625 54.304688 C 136.082031 54.105469 135.621094 53.859375 135.1875 53.566406 C 134.75 53.277344 134.347656 52.945312 133.980469 52.578125 C 133.609375 52.207031 133.277344 51.804688 132.988281 51.371094 C 132.699219 50.933594 132.453125 50.476562 132.253906 49.992188 C 132.050781 49.507812 131.902344 49.011719 131.796875 48.496094 C 131.695312 47.984375 131.644531 47.464844 131.644531 46.941406 C 131.644531 46.417969 131.695312 45.902344 131.796875 45.386719 C 131.902344 44.875 132.050781 44.375 132.253906 43.894531 C 132.453125 43.410156 132.699219 42.949219 132.988281 42.515625 C 133.277344 42.082031 133.609375 41.679688 133.980469 41.308594 C 134.347656 40.9375 134.75 40.609375 135.1875 40.316406 C 135.621094 40.027344 136.082031 39.78125 136.5625 39.582031 C 137.046875 39.382812 137.546875 39.230469 138.058594 39.128906 C 138.570312 39.027344 139.089844 38.972656 139.613281 38.972656 C 140.136719 38.972656 140.65625 39.027344 141.167969 39.128906 C 141.679688 39.230469 142.179688 39.382812 142.664062 39.582031 C 143.144531 39.78125 143.605469 40.027344 144.039062 40.316406 C 144.476562 40.609375 144.878906 40.9375 145.246094 41.308594 C 145.617188 41.679688 145.949219 42.082031 146.238281 42.515625 C 146.53125 42.949219 146.773438 43.410156 146.976562 43.894531 C 147.175781 44.375 147.328125 44.875 147.429688 45.386719 C 147.53125 45.902344 147.582031 46.417969 147.582031 46.941406 Z M 147.582031 46.941406 " fill-opacity="1" fill-rule="nonzero"/></g><path stroke-linecap="butt" transform="matrix(-0.714656, 0.255226, -0.255226, -0.714656, 130.909424, 51.368262)" fill="none" stroke-linejoin="miter" d="M 0.00245044 2.500302 L 48.058959 2.499787 " stroke="#000000" stroke-width="5" stroke-opacity="1" stroke-miterlimit="4"/></g></g></svg>